<?xml version="1.0" encoding="UTF-8" standalone="no"?>
<!-- Created with Inkscape (http://www.inkscape.org/) -->

<svg
   xmlns:dc="http://purl.org/dc/elements/1.1/"
   xmlns:cc="http://creativecommons.org/ns#"
   xmlns:rdf="http://www.w3.org/1999/02/22-rdf-syntax-ns#"
   xmlns:svg="http://www.w3.org/2000/svg"
   xmlns="http://www.w3.org/2000/svg"
   xmlns:sodipodi="http://sodipodi.sourceforge.net/DTD/sodipodi-0.dtd"
   xmlns:inkscape="http://www.inkscape.org/namespaces/inkscape"
   sodipodi:docname="unison.svg"
   inkscape:version="0.91 r13725"
   sodipodi:version="0.32"
   id="svg2"
   height="48.000000px"
   width="48.000000px"
   version="1.1">
  <defs
     id="defs3">
    <linearGradient
       id="linearGradient2819">
      <stop
         id="stop2821"
         offset="0.0000000"
         style="stop-color:#fafe52;stop-opacity:1.0000000;" />
      <stop
         id="stop2055"
         offset="0.67500001"
         style="stop-color:#ef9429;stop-opacity:1.0000000;" />
      <stop
         id="stop2823"
         offset="1.0000000"
         style="stop-color:#e52b00;stop-opacity:1.0000000;" />
    </linearGradient>
  </defs>
  <sodipodi:namedview
     inkscape:window-y="24"
     inkscape:window-x="65"
     inkscape:window-height="1056"
     inkscape:window-width="1855"
     inkscape:current-layer="layer1"
     inkscape:document-units="px"
     inkscape:cy="15.824511"
     inkscape:cx="-27.182519"
     inkscape:zoom="6.890625"
     inkscape:pageshadow="2"
     inkscape:pageopacity="0.0"
     borderopacity="1.0"
     bordercolor="#666666"
     pagecolor="#ffffff"
     id="base"
     showgrid="false"
     inkscape:window-maximized="1" />
  <metadata
     id="metadata4">
    <rdf:RDF>
      <cc:Work
         rdf:about="">
        <dc:format>image/svg+xml</dc:format>
        <dc:type
           rdf:resource="http://purl.org/dc/dcmitype/StillImage" />
        <dc:title></dc:title>
      </cc:Work>
    </rdf:RDF>
  </metadata>
  <g
     id="layer1"
     inkscape:groupmode="layer"
     inkscape:label="Layer 1">
    <path
       id="text1291"
       d="M 11.501514,0.70044889 L 3.5845995,9.8069515 L 7.1943842,9.8069515 L 7.1943842,29.250565 C 7.1943803,33.458778 7.4618286,36.652879 8.0147898,38.808291 C 8.3961341,40.262350 9.1927086,41.658059 10.393966,42.992360 C 11.595209,44.309562 13.257100,45.353724 15.316400,46.191942 C 17.394740,47.013054 20.418712,47.463572 24.422902,47.463571 C 27.740620,47.463571 30.444584,47.067690 32.503898,46.315003 C 34.563154,45.545211 36.205979,44.521473 37.426332,43.238482 C 38.665682,41.955498 39.511930,40.385764 39.969589,38.521149 C 40.427171,36.656551 40.625874,33.479553 40.625914,28.963423 L 40.625914,9.8069515 L 44.399780,9.8069515 L 36.482865,0.70044889 L 28.565951,9.8069515 L 32.175736,9.8069515 L 32.175736,29.988930 C 32.175707,32.965476 32.054402,35.105119 31.806553,36.388094 C 31.558647,37.671091 30.811749,38.739167 29.591458,39.628697 C 28.371113,40.501134 26.579260,40.941351 24.176781,40.941346 C 21.812394,40.941351 19.929842,40.470413 18.557002,39.546656 C 17.203196,38.605807 16.334993,37.394424 15.972724,35.854831 C 15.762969,34.896879 15.685570,32.811870 15.685582,29.578728 L 15.685582,9.8069515 L 19.418428,9.8069515 L 11.501514,0.70044889 z "
       style="writing-mode:lr-tb;text-anchor:start;font-family:Arial;stroke-opacity:1;stroke-linejoin:miter;stroke-linecap:butt;stroke-width:0.5;stroke:none;fill-opacity:1;fill:#dcd8d2;font-stretch:normal;font-weight:bold;font-variant:normal;font-style:normal;font-size:42.266853;stroke-dasharray:none;stroke-miterlimit:4" />
  </g>
</svg>
