<?xml version="1.0" encoding="UTF-8" standalone="no"?>
<!-- Created with Inkscape (http://www.inkscape.org/) -->

<svg
   xmlns:dc="http://purl.org/dc/elements/1.1/"
   xmlns:cc="http://creativecommons.org/ns#"
   xmlns:rdf="http://www.w3.org/1999/02/22-rdf-syntax-ns#"
   xmlns:svg="http://www.w3.org/2000/svg"
   xmlns="http://www.w3.org/2000/svg"
   xmlns:sodipodi="http://sodipodi.sourceforge.net/DTD/sodipodi-0.dtd"
   xmlns:inkscape="http://www.inkscape.org/namespaces/inkscape"
   sodipodi:docname="sync2.svg"
   inkscape:version="0.91 r13725"
   sodipodi:version="0.32"
   id="svg2"
   height="48.000000px"
   width="48.000000px"
   version="1.1">
  <defs
     id="defs3">
    <linearGradient
       id="linearGradient2819">
      <stop
         id="stop2821"
         offset="0.0000000"
         style="stop-color:#fafe52;stop-opacity:1.0000000;" />
      <stop
         id="stop2055"
         offset="0.67500001"
         style="stop-color:#ef9429;stop-opacity:1.0000000;" />
      <stop
         id="stop2823"
         offset="1.0000000"
         style="stop-color:#e52b00;stop-opacity:1.0000000;" />
    </linearGradient>
  </defs>
  <sodipodi:namedview
     inkscape:window-y="24"
     inkscape:window-x="65"
     inkscape:window-height="1026"
     inkscape:window-width="1615"
     inkscape:current-layer="layer1"
     inkscape:document-units="px"
     inkscape:cy="16.695259"
     inkscape:cx="-30.113379"
     inkscape:zoom="6.890625"
     inkscape:pageshadow="2"
     inkscape:pageopacity="0.0"
     borderopacity="1.0"
     bordercolor="#666666"
     pagecolor="#ffffff"
     id="base"
     showgrid="false"
     inkscape:window-maximized="1" />
  <metadata
     id="metadata4">
    <rdf:RDF>
      <cc:Work
         rdf:about="">
        <dc:format>image/svg+xml</dc:format>
        <dc:type
           rdf:resource="http://purl.org/dc/dcmitype/StillImage" />
        <dc:title />
      </cc:Work>
    </rdf:RDF>
  </metadata>
  <g
     id="layer1"
     inkscape:groupmode="layer"
     inkscape:label="Layer 1">
    <path
       id="text1291"
       d="m 13.999649,7.3767611 -6.3335314,7.2852019 2.8878274,0 0,15.554891 c -3e-6,3.36657 0.213956,5.921851 0.656325,7.646181 0.305075,1.163247 0.942335,2.279814 1.903341,3.347255 0.960994,1.053762 2.290507,1.889091 3.937947,2.559666 1.662672,0.656889 4.08185,1.017304 7.285202,1.017303 2.654174,0 4.817345,-0.316705 6.464796,-0.918855 1.647405,-0.615833 2.961665,-1.434824 3.937948,-2.461216 0.99148,-1.026388 1.668478,-2.282175 2.034605,-3.773867 0.366066,-1.491678 0.525028,-4.033277 0.52506,-7.646181 l 0,-8.925177 3.019093,0 -6.333532,-7.285202 -6.333531,7.285202 2.887828,0 0,9.745583 c 0,2.381237 -0.09707,4.092951 -0.295347,5.119331 -0.198324,1.026398 -0.795843,1.880859 -1.772076,2.592483 -0.976276,0.697949 -2.409758,1.050123 -4.331741,1.050119 -1.89151,4e-6 -3.397551,-0.376747 -4.495823,-1.115752 -1.083045,-0.752679 -1.777608,-1.721786 -2.067423,-2.95346 -0.167804,-0.766362 -0.229723,-2.434369 -0.229713,-5.020883 l 0,-15.817421 2.986276,0 z"
       style="opacity:0.3;fill:#000000"
       inkscape:connector-curvature="0"
       sodipodi:nodetypes="cccscccscccscccccsccsccsccc" />
    <path
       sodipodi:nodetypes="cccscccscccscccccsccsccsccc"
       inkscape:connector-curvature="0"
       style="font-style:normal;font-variant:normal;font-weight:bold;font-stretch:normal;font-size:42.26685333px;font-family:Arial;writing-mode:lr-tb;text-anchor:start;fill:#dcd8d2;fill-opacity:1;stroke:none;stroke-width:0.5;stroke-linecap:butt;stroke-linejoin:miter;stroke-miterlimit:4;stroke-dasharray:none;stroke-opacity:1"
       d="m 13.999649,5.3767611 -6.3335314,7.2852019 2.8878274,0 0,15.554891 c -3e-6,3.36657 0.213956,5.921851 0.656325,7.646181 0.305075,1.163247 0.942335,2.279814 1.903341,3.347255 0.960994,1.053762 2.290507,1.889091 3.937947,2.559666 1.662672,0.656889 4.08185,1.017304 7.285202,1.017303 2.654174,0 4.817345,-0.316705 6.464796,-0.918855 1.647405,-0.615833 2.961665,-1.434824 3.937948,-2.461216 0.99148,-1.026388 1.668478,-2.282175 2.034605,-3.773867 0.366066,-1.491678 0.525028,-4.033277 0.52506,-7.646181 l 0,-8.925177 3.019093,0 -6.333532,-7.285202 -6.333531,7.285202 2.887828,0 0,9.745583 c 0,2.381237 -0.09707,4.092951 -0.295347,5.119331 -0.198324,1.026398 -0.795843,1.880859 -1.772076,2.592483 -0.976276,0.697949 -2.409758,1.050123 -4.331741,1.050119 -1.89151,4e-6 -3.397551,-0.376747 -4.495823,-1.115752 -1.083045,-0.752679 -1.777608,-1.721786 -2.067423,-2.95346 -0.167804,-0.766362 -0.229723,-2.434369 -0.229713,-5.020883 l 0,-15.817421 2.986276,0 z"
       id="path4744" />
  </g>
</svg>
